# This file uses centimeters as units for non-parametric coordinates.

mtllib finger.mtl
g default
v -0.064585 0.015042 -0.777660
v -0.123965 0.055344 -0.711818
v -0.158144 -0.007744 -0.677644
v -0.148297 -0.052753 -0.654996
v -0.123965 -0.070832 -0.711818
v -0.090030 -0.060344 -0.751685
v -0.064544 -0.030531 -0.777685
v 0.145869 0.036832 0.768056
v 0.088183 0.112291 0.719457
v -0.005152 0.141113 0.640791
v -0.070669 0.078902 0.555144
v -0.100999 -0.009804 0.529589
v -0.070669 -0.098511 0.555144
v -0.005152 -0.160723 0.640791
v 0.088184 -0.131899 0.719457
v 0.145868 -0.056440 0.768056
v 0.153640 -0.009804 0.774617
v 0.083269 0.082680 0.086520
v 0.160806 0.144891 0.123938
v 0.265848 0.116068 0.164294
v 0.330762 0.040609 0.189237
v 0.339512 -0.006027 0.192596
v 0.330762 -0.052663 0.189237
v 0.265848 -0.128122 0.164294
v 0.160806 -0.156944 0.123938
v 0.083269 -0.094734 0.086520
v 0.049138 -0.006027 0.073407
v 0.060956 0.083100 -0.287577
v 0.120202 0.145312 -0.349893
v 0.187762 0.116488 -0.410159
v 0.246438 0.041029 -0.457500
v 0.265860 -0.005607 -0.473563
v 0.268556 -0.052243 -0.476403
v 0.221730 -0.127702 -0.437191
v 0.129404 -0.156524 -0.356507
v 0.060956 -0.094313 -0.287577
v 0.030927 -0.005607 -0.261328
v -0.090030 0.044856 -0.751685
v 0.068433 0.031619 -0.685221
v -0.051993 0.119639 -0.612077
v 0.021099 0.095310 -0.636646
v -0.148297 0.037265 -0.654996
v -0.070623 0.067129 -0.522351
v -0.157176 0.018427 -0.658505
v -0.085001 -0.007744 -0.493201
v -0.079957 0.029692 -0.507760
v -0.157176 -0.033915 -0.658505
v -0.079957 -0.045181 -0.507760
v -0.051797 -0.135127 -0.612249
v -0.070623 -0.082617 -0.522351
v -0.105737 -0.070847 -0.735501
v 0.075392 -0.047108 -0.692572
v 0.029111 -0.110799 -0.645052
v -0.058735 -0.007744 -0.783458
v 0.077861 -0.007744 -0.695338
v -0.108391 0.005598 -0.750870
v -0.122019 0.022601 -0.734504
v -0.122019 -0.038089 -0.734504
v -0.105169 -0.007744 -0.754534
vt 0.052007 0.142792
vt 0.121405 0.083139
vt 0.140919 0.117123
vt 0.108685 0.196456
vt 0.189500 0.103577
vt 0.161252 0.115024
vt 0.149092 0.205183
vt 0.091446 0.336872
vt 0.024297 0.299601
vt 0.132726 0.059294
vt 0.156747 0.069570
vt 0.189500 0.213891
vt 0.187193 0.352571
vt 0.091899 0.560615
vt 0.024751 0.582994
vt 0.164905 0.043759
vt 0.175099 0.059782
vt 0.217748 0.115024
vt 0.229908 0.205183
vt 0.270315 0.196456
vt 0.282939 0.336872
vt 0.187646 0.552773
vt 0.095977 0.840894
vt 0.028828 0.892118
vt 0.189500 0.040291
vt 0.189500 0.057590
vt 0.257595 0.083139
vt 0.238081 0.117123
vt 0.326992 0.142689
vt 0.350088 0.295645
vt 0.283393 0.560615
vt 0.191723 0.825610
vt 0.141386 0.968234
vt 0.214095 0.043744
vt 0.257611 0.068974
vt 0.222253 0.069570
vt 0.350540 0.582994
vt 0.287470 0.840894
vt 0.059939 0.939167
vt 0.246274 0.059294
vt 0.354619 0.892118
vt 0.323508 0.939167
vt 0.242060 0.968234
vt 0.191723 0.972158
vt 0.547781 0.622049
vt 0.622828 0.602812
vt 0.626389 0.943053
vt 0.543704 0.968234
vt 0.548234 0.235243
vt 0.629682 0.263557
vt 0.497444 0.624058
vt 0.493367 0.972158
vt 0.538077 0.099046
vt 0.606823 0.128098
vt 0.660793 0.299601
vt 0.671900 0.587746
vt 0.497897 0.225636
vt 0.447107 0.622049
vt 0.443030 0.968234
vt 0.495590 0.092995
vt 0.447560 0.223937
vt 0.365659 0.607131
vt 0.361582 0.939167
vt 0.495590 0.040291
vt 0.520185 0.043759
vt 0.453102 0.094649
vt 0.366112 0.247389
vt 0.470995 0.043744
vt 0.384357 0.123071
vt 0.764243 0.959386
vt 0.732064 0.944143
vt 0.749956 0.860449
vt 0.818702 0.888129
vt 0.775580 0.968781
vt 0.844961 0.936519
vt 0.775564 0.979682
vt 0.694207 0.916989
vt 0.796081 0.500215
vt 0.858905 0.524352
vt 0.752646 0.856388
vt 0.696823 0.809339
vt 0.777300 0.212866
vt 0.832519 0.164610
vt 0.668926 0.059910
vt 0.717315 0.040291
vt 0.892445 0.753381
vt 0.848730 0.738687
vt 0.951718 0.581878
vt 0.992125 0.617922
vt 0.825981 0.822185
vt 0.805685 0.798340
vt 0.920755 0.782433
vt 0.841199 0.837720
vn 0.541857 0.626515 -0.560241
vn 0.301101 0.591054 -0.748327
vn 0.103985 0.783947 -0.612058
vn 0.339180 0.849382 -0.404360
vn -0.249752 0.967339 -0.043363
vn -0.438002 0.863946 -0.248498
vn -0.780896 0.597416 0.182469
vn -0.704266 0.628470 0.330206
vn -0.940837 0.211438 0.264801
vn -0.840127 0.336378 0.425484
vn -0.891670 -0.002779 0.452677
vn -0.991216 -0.000635 0.132254
vn -0.940836 -0.211441 0.264802
vn -0.837722 -0.337070 0.429657
vn -0.230715 -0.972570 -0.029640
vn -0.509832 -0.837282 -0.197559
vn -0.149000 -0.852059 -0.501792
vn 0.298544 -0.866927 -0.399136
vn 0.563825 -0.519278 -0.642224
vn 0.215882 -0.540023 -0.813493
vn 0.356357 0.003140 -0.934345
vn 0.690826 0.180895 -0.700026
vn -0.753891 0.244420 -0.609843
vn -0.780313 -0.598243 0.182256
vn -0.741279 0.042244 -0.669866
vn 0.166036 -0.684205 -0.710137
vn -0.649672 0.106554 -0.752710
vn -0.654467 -0.347105 -0.671708
vn 0.495575 0.842312 0.211936
vn -0.119949 0.990135 0.072425
vn 0.684750 0.558686 0.467962
vn -0.788518 0.610168 -0.077037
vn -0.995664 -0.004329 -0.092920
vn -0.801264 -0.595790 -0.054876
vn -0.141822 -0.985713 0.090866
vn 0.456975 -0.851155 0.258281
vn 0.780984 -0.537140 0.318660
vn 0.947998 -0.001473 0.318272
vn -0.103415 0.994217 -0.028964
vn -0.771985 0.626279 -0.108693
vn 0.550431 0.833387 0.049915
vn 0.837666 0.540092 0.081340
vn 0.993321 0.067583 0.093520
vn 0.869066 -0.485858 0.093094
vn 0.551818 -0.832062 0.056301
vn -0.093430 -0.995116 -0.031861
vn -0.764489 -0.634263 -0.115185
vn -0.988156 0.001882 -0.153443
vn -0.081104 0.996599 0.014562
vn -0.770623 0.613816 0.171379
vn 0.558480 0.810186 -0.178040
vn 0.788186 0.564935 -0.244154
vn 0.949119 0.153516 -0.274966
vn 0.852433 -0.454856 -0.257806
vn 0.552771 -0.816382 -0.167227
vn -0.057089 -0.998285 0.012993
vn -0.753144 -0.636247 0.167224
vn -0.976737 0.001766 0.214432
vn -0.679999 -0.654273 0.330951
s 1
g pCylinder1
usemtl initialShadingGroup
f 39/92/1 1/93/2 38/90/3 41/86/4
f 40/1/5 2/2/6 42/3/7 43/4/8
f 43/4/8 42/3/7 44/6/9 46/7/10
f 45/12/11 3/5/12 47/18/13 48/19/14
f 49/75/15 5/76/16 51/74/17 53/73/18
f 52/66/19 7/68/20 54/64/21 55/60/22
f 3/5/12 2/2/6 38/10/3 57/11/23
f 3/5/12 5/27/16 4/28/24 47/18/13
f 58/36/25 6/40/26 51/35/17
f 3/5/12 7/34/20 6/40/26 58/36/25
f 56/17/27 1/16/2 54/25/21 59/26/28
f 9/39/29 10/24/30 8/33/31
f 10/24/30 11/23/32 8/33/31
f 11/23/32 12/32/33 8/33/31
f 12/32/33 13/38/34 8/33/31
f 13/38/34 14/41/35 8/33/31
f 14/41/35 15/42/36 8/33/31
f 15/42/36 16/43/37 8/33/31
f 16/43/37 17/44/38 8/33/31
f 19/15/39 18/14/40 11/23/32 10/24/30
f 20/46/41 19/56/39 10/77/30 9/47/29
f 21/45/42 20/46/41 9/47/29 8/48/31
f 22/51/43 21/45/42 8/48/31 17/52/38
f 23/58/44 22/51/43 17/52/38 16/59/37
f 24/62/45 23/58/44 16/59/37 15/63/36
f 25/78/46 24/79/45 15/80/36 14/81/35
f 26/31/47 25/37/46 14/41/35 13/38/34
f 27/22/48 26/31/47 13/38/34 12/32/33
f 18/14/40 27/22/48 12/32/33 11/23/32
f 29/9/49 28/8/50 18/14/40 19/15/39
f 30/50/51 29/55/49 19/56/39 20/46/41
f 31/49/52 30/50/51 20/46/41 21/45/42
f 32/57/53 31/49/52 21/45/42 22/51/43
f 33/61/54 32/57/53 22/51/43 23/58/44
f 34/67/55 33/61/54 23/58/44 24/62/45
f 35/82/56 34/83/55 24/79/45 25/78/46
f 36/21/57 35/30/56 25/37/46 26/31/47
f 37/13/58 36/21/57 26/31/47 27/22/48
f 28/8/50 37/13/58 27/22/48 18/14/40
f 41/86/4 40/87/5 29/88/49 30/89/51
f 39/53/1 41/54/4 30/50/51 31/49/52
f 55/60/22 39/53/1 31/49/52 32/57/53
f 52/66/19 55/60/22 32/57/53 33/61/54
f 53/69/18 52/66/19 33/61/54 34/67/55
f 49/84/15 53/85/18 34/83/55 35/82/56
f 50/20/59 49/29/15 35/30/56 36/21/57
f 45/12/11 48/19/14 50/20/59 36/21/57 37/13/58
f 43/4/8 46/7/10 45/12/11 37/13/58 28/8/50
f 40/1/5 43/4/8 28/8/50 29/9/49
f 38/90/3 2/91/6 40/87/5 41/86/4
f 44/6/9 3/5/12 45/12/11 46/7/10
f 47/18/13 4/28/24 50/20/59 48/19/14
f 4/28/24 5/27/16 49/29/15 50/20/59
f 51/74/17 6/70/26 53/73/18
f 6/70/26 7/71/20 52/72/19 53/73/18
f 54/64/21 1/65/2 39/53/1 55/60/22
f 38/10/3 1/16/2 56/17/27 57/11/23
f 56/17/27 3/5/12 57/11/23
f 42/3/7 2/2/6 3/5/12 44/6/9
f 51/35/17 5/27/16 3/5/12 58/36/25
f 54/25/21 7/34/20 3/5/12 59/26/28
f 59/26/28 3/5/12 56/17/27
