# This file uses centimeters as units for non-parametric coordinates.

mtllib floor.mtl
g default
v 3.000000 -0.150000 3.000000
v 3.000000 0.150000 3.000000
v -3.000000 -0.150000 3.000000
v -3.000000 0.150000 3.000000
v -3.000000 -0.150000 -3.000000
v -3.000000 0.150000 -3.000000
v 3.000000 -0.150000 -3.000000
v 3.000000 0.150000 -3.000000
vt 0.333169 0.369198
vt 0.333169 0.674067
vt 0.028300 0.674067
vt 0.028300 0.369198
vt 0.964209 0.343775
vt 0.964209 0.648644
vt 0.659339 0.648643
vt 0.659340 0.343775
vt 0.354471 0.343775
vt 0.354471 0.038906
vt 0.659340 0.038906
vt 0.638037 0.978937
vt 0.333168 0.978936
vt 0.638038 0.674068
vt 0.028299 0.978936
vt 0.964209 0.038906
vn 0.000000 0.000000 1.000000
vn 0.000000 0.000000 1.000000
vn 0.000000 0.000000 1.000000
vn 0.000000 0.000000 1.000000
vn -0.999999 -0.001385 0.000022
vn -0.999999 -0.001385 0.000022
vn -0.999999 -0.001385 0.000022
vn -0.999999 -0.001385 0.000022
vn 0.000000 0.000000 -1.000000
vn 0.000000 0.000000 -1.000000
vn 0.000000 0.000000 -1.000000
vn 0.000000 0.000000 -1.000000
vn 0.999998 0.001842 0.000000
vn 0.999998 0.001842 0.000000
vn 0.999998 0.001842 0.000000
vn 0.999998 0.001842 0.000000
vn -0.001841 0.999998 0.000000
vn -0.001841 0.999998 0.000000
vn -0.001841 0.999998 0.000000
vn -0.001841 0.999998 0.000000
vn 0.001381 -0.999999 -0.000460
vn 0.001381 -0.999999 -0.000460
vn 0.001381 -0.999999 -0.000460
vn 0.001381 -0.999999 -0.000460
s off
g initialShadingGroup pCube1
f 1/1/1 2/2/2 4/3/3 3/4/4
f 3/5/5 4/6/6 6/7/7 5/8/8
f 5/8/9 6/9/10 8/10/11 7/11/12
f 7/12/13 8/13/14 2/2/15 1/14/16
f 2/2/17 8/13/18 6/15/19 4/3/20
f 7/11/21 1/16/22 3/5/23 5/8/24
