# This file uses centimeters as units for non-parametric coordinates.

mtllib machine.mtl
g default
v -0.861667 10.382129 0.965026
v 1.068384 10.382129 0.965026
v -0.700529 10.510299 0.803888
v 0.907246 10.510299 0.803888
v -0.700529 10.510299 -0.803887
v 0.907246 10.510299 -0.803887
v -0.861667 10.382129 -0.965025
v 1.068384 10.382129 -0.965025
v 0.907246 13.017628 0.803888
v -0.700529 13.017628 0.803888
v -0.700529 13.017628 -0.803887
v 0.907246 13.017628 -0.803887
v 1.068384 13.017624 0.965026
v -0.861667 13.017624 0.965026
v -0.861667 13.017624 -0.965025
v 1.068384 13.017624 -0.965025
v -2.952497 2.351346 0.965026
v -2.952497 4.281396 0.965026
v -3.184174 2.512484 0.803888
v -3.184174 4.120259 0.803888
v -3.184174 2.512484 -0.803887
v -3.184174 4.120259 -0.803887
v -2.952497 2.351346 -0.965025
v -2.952497 4.281396 -0.965025
v -7.716367 4.120259 0.803888
v -7.716367 2.512484 0.803888
v -7.716367 2.512484 -0.803887
v -7.716367 4.120259 -0.803887
v -7.716361 4.281396 0.965026
v -7.716361 2.351346 0.965026
v -7.716361 2.351346 -0.965025
v -7.716361 4.281396 -0.965025
v 4.982030 0.207036 -1.585176
v 4.253405 0.207036 -3.015184
v 3.118543 0.207036 -4.150045
v 1.688535 0.207036 -4.878670
v 0.103359 0.207036 -5.129737
v -1.481817 0.207036 -4.878670
v -2.911825 0.207036 -4.150044
v -4.046685 0.207036 -3.015183
v -4.775311 0.207036 -1.585175
v -5.026378 0.207036 0.000000
v -4.775311 0.207036 1.585176
v -4.046685 0.207036 3.015184
v -2.911825 0.207036 4.150044
v -1.481817 0.207036 4.878669
v 0.103359 0.207036 5.129736
v 1.688534 0.207036 4.878669
v 3.118541 0.207036 4.150044
v 4.253402 0.207036 3.015183
v 4.982027 0.207036 1.585176
v 5.233094 0.207036 0.000000
v 4.982030 10.466507 -1.585176
v 4.253405 10.466507 -3.015184
v 3.118543 10.466507 -4.150045
v 1.688535 10.466507 -4.878670
v 0.103359 10.466507 -5.129737
v -1.481817 10.466507 -4.878670
v -2.911825 10.466507 -4.150044
v -4.046685 10.466507 -3.015183
v -4.775311 10.466507 -1.585175
v -5.026378 10.466507 0.000000
v -4.775311 10.466507 1.585176
v -4.046685 10.466507 3.015184
v -2.911825 10.466507 4.150044
v -1.481817 10.466507 4.878669
v 0.103359 10.466507 5.129736
v 1.688534 10.466507 4.878669
v 3.118541 10.466507 4.150044
v 4.253402 10.466507 3.015183
v 4.982027 10.466507 1.585176
v 5.233094 10.466507 0.000000
v 0.103359 0.207036 0.000000
v 0.103359 10.466507 0.000000
v 1.269111 6.488621 -3.587817
v 2.320751 6.488621 -3.051979
v 3.155338 6.488621 -2.217393
v 3.691176 6.488621 -1.165752
v 3.875811 6.488621 0.000000
v 3.691173 6.488621 1.165752
v 3.155336 6.488621 2.217392
v 2.320750 6.488621 3.051978
v 1.269110 6.488621 3.587815
v 0.103358 6.488621 3.772453
v -1.062393 6.488621 3.587816
v -2.114033 6.488621 3.051978
v -2.948619 6.488621 2.217392
v -3.484457 6.488621 1.165752
v -3.669094 6.488621 0.000000
v -3.484457 6.488621 -1.165752
v -2.948619 6.488621 -2.217392
v -2.114034 6.488621 -3.051978
v -1.062394 6.488621 -3.587816
v 0.103359 6.488621 -3.772453
v 1.269111 4.669829 -3.587817
v 2.320751 4.669829 -3.051979
v 3.155338 4.669829 -2.217393
v 3.691176 4.669829 -1.165752
v 3.875811 4.669829 0.000000
v 3.691173 4.669829 1.165752
v 3.155336 4.669829 2.217392
v 2.320750 4.669829 3.051978
v 1.269110 4.669829 3.587815
v 0.103358 4.669829 3.772453
v -1.062393 4.669829 3.587816
v -2.114033 4.669829 3.051978
v -2.948619 4.669829 2.217392
v -3.484457 4.669829 1.165752
v -3.669094 4.669829 0.000000
v -3.484457 4.669829 -1.165752
v -2.948619 4.669829 -2.217392
v -2.114034 4.669829 -3.051978
v -1.062394 4.669829 -3.587816
v 0.103359 4.669829 -3.772453
vt 0.889457 0.096013
vt 0.889457 0.025615
vt 0.985586 0.025615
vt 0.985586 0.096013
vt 0.889458 0.236810
vt 0.889456 0.166411
vt 0.985586 0.166411
vt 0.985586 0.236809
vt 0.804959 0.989483
vt 0.746315 0.989482
vt 0.746316 0.898028
vt 0.804959 0.898029
vt 0.922245 0.989482
vt 0.863602 0.989482
vt 0.863602 0.898027
vt 0.922245 0.898028
vt 0.461778 0.814137
vt 0.403134 0.814137
vt 0.403134 0.755494
vt 0.461777 0.755494
vt 0.149941 0.815937
vt 0.079543 0.815937
vt 0.009145 0.815937
vt 0.009145 0.745539
vt 0.701850 0.893410
vt 0.701850 0.963808
vt 0.695972 0.957931
vt 0.695972 0.899288
vt 0.631452 0.963808
vt 0.637329 0.957931
vt 0.631452 0.893410
vt 0.637329 0.899288
vt 0.211168 0.005592
vt 0.263327 0.005592
vt 0.234228 0.168371
vt 0.195869 0.168371
vt 0.304721 0.005592
vt 0.264669 0.168371
vt 0.234228 0.234711
vt 0.195869 0.234711
vt 0.153349 0.005592
vt 0.153349 0.168371
vt 0.264669 0.234711
vt 0.263327 0.379803
vt 0.211168 0.379803
vt 0.153349 0.234711
vt 0.095530 0.005592
vt 0.110828 0.168371
vt 0.304721 0.379803
vt 0.153349 0.379803
vt 0.110828 0.234711
vt 0.043371 0.005592
vt 0.072470 0.168371
vt 0.095530 0.379803
vt 0.072470 0.234711
vt 0.001977 0.005592
vt 0.042029 0.168371
vt 0.043371 0.379803
vt 0.042029 0.234711
vt 0.001977 0.379803
vt 0.582969 0.005592
vt 0.635128 0.005592
vt 0.650426 0.168371
vt 0.612068 0.168371
vt 0.692947 0.005592
vt 0.692947 0.168371
vt 0.650426 0.234711
vt 0.612068 0.234711
vt 0.541575 0.005592
vt 0.581626 0.168371
vt 0.750765 0.005592
vt 0.735467 0.168371
vt 0.692947 0.234711
vt 0.635128 0.379803
vt 0.582969 0.379803
vt 0.581626 0.234711
vt 0.802925 0.005592
vt 0.773825 0.168371
vt 0.735467 0.234711
vt 0.692947 0.379803
vt 0.541575 0.379803
vt 0.844318 0.005592
vt 0.804267 0.168371
vt 0.773825 0.234711
vt 0.750765 0.379803
vt 0.804267 0.234711
vt 0.802925 0.379803
vt 0.844318 0.379803
vt 0.804956 0.839387
vt 0.863599 0.839384
vt 0.819060 0.236813
vt 0.819057 0.166415
vt 0.894225 0.806229
vt 0.964623 0.806229
vt 0.958745 0.812107
vt 0.900102 0.812107
vt 0.964623 0.876627
vt 0.958745 0.870750
vt 0.894225 0.876627
vt 0.900102 0.870750
vt 0.079543 0.989698
vt 0.009145 0.989698
vt 0.220339 0.815937
vt 0.220339 0.989698
vt 0.149941 0.989698
vt 0.520420 0.979448
vt 0.461777 0.979448
vt 0.520421 0.814138
vt 0.403135 0.979448
vt 0.344491 0.979448
vt 0.344491 0.814137
vt 0.728732 0.466293
vt 0.755308 0.518452
vt 0.577360 0.576271
vt 0.764466 0.576271
vt 0.687338 0.424899
vt 0.755308 0.634090
vt 0.635179 0.398323
vt 0.728732 0.686249
vt 0.577360 0.389165
vt 0.687338 0.727642
vt 0.519541 0.398323
vt 0.635179 0.754219
vt 0.467382 0.424899
vt 0.577360 0.763376
vt 0.425988 0.466293
vt 0.519541 0.754219
vt 0.399412 0.518452
vt 0.467382 0.727642
vt 0.390254 0.576271
vt 0.425988 0.686249
vt 0.399412 0.634090
vt 0.375007 0.632290
vt 0.348431 0.684449
vt 0.197059 0.574471
vt 0.307037 0.725842
vt 0.384165 0.574471
vt 0.254878 0.752419
vt 0.375007 0.516652
vt 0.197059 0.761576
vt 0.348431 0.464493
vt 0.139240 0.752419
vt 0.307037 0.423099
vt 0.087081 0.725842
vt 0.254878 0.396523
vt 0.045687 0.684449
vt 0.197059 0.387365
vt 0.019111 0.632290
vt 0.139240 0.396523
vt 0.009953 0.574471
vt 0.087081 0.423099
vt 0.019111 0.516652
vt 0.045687 0.464493
vt 0.985587 0.307207
vt 0.889458 0.307208
vt 0.980888 0.989482
vt 0.980888 0.898028
vt 0.290737 0.815937
vt 0.290737 0.989698
vt 0.579064 0.814138
vt 0.579064 0.979448
vt 0.535216 0.379803
vt 0.483057 0.379803
vt 0.467759 0.217024
vt 0.506117 0.217024
vt 0.425238 0.379803
vt 0.425238 0.217024
vt 0.467759 0.150684
vt 0.506117 0.150684
vt 0.367419 0.379803
vt 0.382718 0.217024
vt 0.425238 0.150684
vt 0.483057 0.005592
vt 0.535216 0.005592
vt 0.315260 0.379803
vt 0.344359 0.217024
vt 0.382718 0.150684
vt 0.425238 0.005592
vt 0.344359 0.150684
vt 0.367419 0.005592
vt 0.315260 0.005592
vt 0.770555 0.396365
vt 0.822714 0.396365
vt 0.838012 0.559144
vt 0.799654 0.559144
vt 0.880533 0.396365
vt 0.880533 0.559144
vt 0.838012 0.625484
vt 0.799654 0.625484
vt 0.938352 0.396365
vt 0.923053 0.559144
vt 0.880533 0.625484
vt 0.822714 0.770576
vt 0.770555 0.770576
vt 0.990511 0.396365
vt 0.961411 0.559144
vt 0.923053 0.625484
vt 0.880533 0.770576
vt 0.961411 0.625484
vt 0.938352 0.770576
vt 0.990511 0.770576
vt 0.079543 0.745539
vn 0.000000 0.000000 1.000000
vn 0.000000 0.000000 1.000000
vn 0.000000 0.000000 1.000000
vn 0.000000 0.000000 1.000000
vn 0.000000 1.000000 0.000000
vn 0.000000 1.000000 0.000000
vn 0.000000 1.000000 0.000000
vn 0.000000 1.000000 0.000000
vn 0.000000 0.000000 -1.000000
vn 0.000000 0.000000 -1.000000
vn 0.000000 0.000000 -1.000000
vn 0.000000 0.000000 -1.000000
vn 0.000000 -1.000000 0.000000
vn 0.000000 -1.000000 0.000000
vn 0.000000 -1.000000 0.000000
vn 0.000000 -1.000000 0.000000
vn 1.000000 0.000000 0.000000
vn 1.000000 0.000000 0.000000
vn 1.000000 0.000000 0.000000
vn 1.000000 0.000000 0.000000
vn -1.000000 0.000000 0.000000
vn -1.000000 0.000000 0.000000
vn -1.000000 0.000000 0.000000
vn -1.000000 0.000000 0.000000
vn 0.000000 0.000000 -1.000000
vn 0.000000 0.000000 -1.000000
vn 0.000000 0.000000 -1.000000
vn 0.000000 0.000000 -1.000000
vn 1.000000 0.000000 0.000000
vn 1.000000 0.000000 0.000000
vn 1.000000 0.000000 0.000000
vn 1.000000 0.000000 0.000000
vn 0.000000 0.000000 1.000000
vn 0.000000 0.000000 1.000000
vn 0.000000 0.000000 1.000000
vn 0.000000 0.000000 1.000000
vn -1.000000 0.000000 0.000000
vn -1.000000 0.000000 0.000000
vn -1.000000 0.000000 0.000000
vn -1.000000 0.000000 0.000000
vn 0.000000 1.000000 0.000023
vn 0.000000 1.000000 0.000023
vn 0.000000 1.000000 0.000023
vn 0.000000 1.000000 0.000023
vn -0.000023 1.000000 0.000000
vn -0.000023 1.000000 0.000000
vn -0.000023 1.000000 0.000000
vn -0.000023 1.000000 0.000000
vn 0.000000 1.000000 -0.000023
vn 0.000000 1.000000 -0.000023
vn 0.000000 1.000000 -0.000023
vn 0.000000 1.000000 -0.000023
vn 0.000023 1.000000 0.000000
vn 0.000023 1.000000 0.000000
vn 0.000023 1.000000 0.000000
vn 0.000023 1.000000 0.000000
vn 0.000000 0.000000 1.000000
vn 0.000000 0.000000 1.000000
vn 0.000000 0.000000 1.000000
vn 0.000000 0.000000 1.000000
vn -1.000000 0.000000 0.000000
vn -1.000000 0.000000 0.000000
vn -1.000000 0.000000 0.000000
vn -1.000000 0.000000 0.000000
vn 0.000000 0.000000 -1.000000
vn 0.000000 0.000000 -1.000000
vn 0.000000 0.000000 -1.000000
vn 0.000000 0.000000 -1.000000
vn 1.000000 0.000000 0.000000
vn 1.000000 0.000000 0.000000
vn 1.000000 0.000000 0.000000
vn 1.000000 0.000000 0.000000
vn 0.000000 1.000000 0.000000
vn 0.000000 1.000000 0.000000
vn 0.000000 1.000000 0.000000
vn 0.000000 1.000000 0.000000
vn 0.000000 -1.000000 0.000000
vn 0.000000 -1.000000 0.000000
vn 0.000000 -1.000000 0.000000
vn 0.000000 -1.000000 0.000000
vn 0.000000 0.000000 -1.000000
vn 0.000000 0.000000 -1.000000
vn 0.000000 0.000000 -1.000000
vn 0.000000 0.000000 -1.000000
vn 0.000000 1.000000 0.000000
vn 0.000000 1.000000 0.000000
vn 0.000000 1.000000 0.000000
vn 0.000000 1.000000 0.000000
vn 0.000000 0.000000 1.000000
vn 0.000000 0.000000 1.000000
vn 0.000000 0.000000 1.000000
vn 0.000000 0.000000 1.000000
vn 0.000000 -1.000000 0.000000
vn 0.000000 -1.000000 0.000000
vn 0.000000 -1.000000 0.000000
vn 0.000000 -1.000000 0.000000
vn -1.000000 0.000000 0.000034
vn -1.000000 0.000000 0.000034
vn -1.000000 0.000000 0.000034
vn -1.000000 0.000000 0.000034
vn -1.000000 -0.000034 0.000000
vn -1.000000 -0.000034 0.000000
vn -1.000000 -0.000034 0.000000
vn -1.000000 -0.000034 0.000000
vn -1.000000 0.000000 -0.000034
vn -1.000000 0.000000 -0.000034
vn -1.000000 0.000000 -0.000034
vn -1.000000 0.000000 -0.000034
vn -1.000000 0.000034 0.000000
vn -1.000000 0.000034 0.000000
vn -1.000000 0.000034 0.000000
vn -1.000000 0.000034 0.000000
vn 0.909905 0.290974 -0.295645
vn 0.774012 0.290974 -0.562352
vn 0.788826 0.222017 -0.573116
vn 0.927321 0.222017 -0.301304
vn 0.562352 0.290974 -0.774012
vn 0.573116 0.222017 -0.788826
vn 0.295646 0.290974 -0.909905
vn 0.301305 0.222017 -0.927321
vn 0.000000 0.290974 -0.956731
vn -0.000000 0.222017 -0.975043
vn -0.295646 0.290974 -0.909905
vn -0.301305 0.222017 -0.927321
vn -0.562353 0.290974 -0.774011
vn -0.573116 0.222017 -0.788826
vn -0.774012 0.290974 -0.562352
vn -0.788826 0.222017 -0.573116
vn -0.909905 0.290974 -0.295646
vn -0.927321 0.222017 -0.301305
vn -0.956731 0.290974 0.000000
vn -0.975043 0.222017 -0.000000
vn -0.909905 0.290974 0.295646
vn -0.927321 0.222017 0.301305
vn -0.774011 0.290974 0.562353
vn -0.788826 0.222017 0.573116
vn -0.562352 0.290974 0.774012
vn -0.573116 0.222017 0.788826
vn -0.295646 0.290974 0.909905
vn -0.301305 0.222017 0.927321
vn 0.000000 0.290974 0.956731
vn 0.000000 0.222017 0.975043
vn 0.295646 0.290974 0.909905
vn 0.301305 0.222017 0.927321
vn 0.562352 0.290974 0.774012
vn 0.573116 0.222017 0.788826
vn 0.774012 0.290974 0.562352
vn 0.788826 0.222017 0.573116
vn 0.909905 0.290974 0.295646
vn 0.927321 0.222017 0.301305
vn 0.956731 0.290974 0.000001
vn 0.975043 0.222017 0.000001
vn 0.000000 -1.000000 -0.000000
vn 0.000000 -1.000000 0.000000
vn 0.000000 -1.000000 0.000000
vn 0.000000 -1.000000 -0.000000
vn 0.000000 -1.000000 0.000000
vn 0.000000 -1.000000 0.000000
vn 0.000000 -1.000000 0.000000
vn 0.000000 -1.000000 0.000000
vn 0.000000 -1.000000 0.000000
vn 0.000000 -1.000000 0.000000
vn 0.000000 -1.000000 0.000000
vn 0.000000 -1.000000 0.000000
vn 0.000000 -1.000000 0.000000
vn 0.000000 -1.000000 0.000000
vn 0.000000 -1.000000 0.000000
vn 0.000000 -1.000000 0.000000
vn 0.000000 -1.000000 -0.000000
vn 0.000000 -1.000000 -0.000000
vn 0.000000 -1.000000 0.000000
vn 0.000000 -1.000000 0.000000
vn 0.000000 -1.000000 0.000000
vn 0.000000 1.000000 0.000000
vn 0.000000 1.000000 0.000000
vn 0.000000 1.000000 -0.000000
vn 0.000000 1.000000 0.000000
vn 0.000000 1.000000 -0.000000
vn 0.000000 1.000000 0.000000
vn 0.000000 1.000000 0.000000
vn 0.000000 1.000000 0.000000
vn 0.000000 1.000000 0.000000
vn 0.000000 1.000000 0.000000
vn 0.000000 1.000000 0.000000
vn 0.000000 1.000000 0.000000
vn 0.000000 1.000000 0.000000
vn 0.000000 1.000000 0.000000
vn 0.000000 1.000000 0.000000
vn 0.000000 1.000000 -0.000000
vn 0.000000 1.000000 0.000000
vn 0.000000 1.000000 -0.000000
vn 0.000000 1.000000 -0.000000
vn 0.000000 1.000000 0.000000
vn 0.000000 1.000000 0.000000
vn 0.570493 -0.240774 -0.785217
vn 0.299926 -0.240774 -0.923077
vn 0.292461 -0.322927 -0.900103
vn 0.556294 -0.322927 -0.765673
vn 0.785217 -0.240774 -0.570493
vn 0.765673 -0.322927 -0.556294
vn 0.923078 -0.240774 -0.299925
vn 0.900103 -0.322927 -0.292460
vn 0.970581 -0.240774 0.000001
vn 0.946424 -0.322927 0.000001
vn 0.923078 -0.240774 0.299926
vn 0.900103 -0.322927 0.292461
vn 0.785217 -0.240774 0.570493
vn 0.765673 -0.322927 0.556294
vn 0.570493 -0.240774 0.785217
vn 0.556294 -0.322927 0.765673
vn 0.299926 -0.240774 0.923077
vn 0.292461 -0.322927 0.900103
vn 0.000000 -0.240774 0.970581
vn -0.000000 -0.322927 0.946424
vn -0.299926 -0.240774 0.923077
vn -0.292461 -0.322927 0.900103
vn -0.570493 -0.240774 0.785217
vn -0.556294 -0.322927 0.765673
vn -0.785217 -0.240774 0.570493
vn -0.765673 -0.322927 0.556294
vn -0.923078 -0.240774 0.299926
vn -0.900103 -0.322927 0.292461
vn -0.970581 -0.240774 -0.000000
vn -0.946424 -0.322927 0.000000
vn -0.923077 -0.240774 -0.299926
vn -0.900103 -0.322927 -0.292461
vn -0.785217 -0.240774 -0.570493
vn -0.765673 -0.322927 -0.556294
vn -0.570494 -0.240774 -0.785216
vn -0.556294 -0.322927 -0.765673
vn -0.299926 -0.240774 -0.923077
vn -0.292461 -0.322927 -0.900102
vn -0.000000 -0.240774 -0.970581
vn 0.000000 -0.322927 -0.946424
s off
g pCube2
usemtl initialShadingGroup
f 1/6/1 2/1/2 13/4/3 14/7/4
f 3/89/5 4/90/6 6/15/7 5/12/8
f 15/8/9 16/154/10 8/155/11 7/5/12
f 7/5/13 8/91/14 2/92/15 1/6/16
f 2/1/17 8/2/18 16/3/19 13/4/20
f 7/5/21 1/6/22 14/7/23 15/8/24
f 10/156/25 9/13/26 4/16/27 3/157/28
f 11/9/29 10/10/30 3/11/31 5/12/32
f 5/12/33 6/15/34 12/14/35 11/9/36
f 9/13/37 12/14/38 6/15/39 4/16/40
f 14/93/41 13/94/42 9/95/43 10/96/44
f 15/99/45 14/93/46 10/96/47 11/100/48
f 11/100/49 12/98/50 16/97/51 15/99/52
f 13/94/53 16/97/54 12/98/55 9/95/56
f 17/103/57 18/158/58 29/159/59 30/104/60
f 19/17/61 20/18/62 22/19/63 21/20/64
f 31/105/65 32/101/66 24/22/67 23/21/68
f 23/202/69 24/22/70 18/23/71 17/24/72
f 18/23/73 24/22/74 32/101/75 29/102/76
f 23/21/77 17/103/78 30/104/79 31/105/80
f 26/107/81 25/109/82 20/18/83 19/17/84
f 27/106/85 26/107/86 19/17/87 21/108/88
f 21/108/89 22/160/90 28/161/91 27/106/92
f 25/109/93 28/110/94 22/111/95 20/18/96
f 30/25/97 29/26/98 25/27/99 26/28/100
f 31/31/101 30/25/102 26/28/103 27/32/104
f 27/32/105 28/30/106 32/29/107 31/31/108
f 29/26/109 32/29/110 28/30/111 25/27/112
s 1
f 33/33/113 34/34/114 97/35/115 98/36/116
f 34/34/114 35/37/117 96/38/118 97/35/115
f 35/162/117 36/163/119 95/164/120 96/165/118
f 36/163/119 37/166/121 114/167/122 95/164/120
f 37/166/121 38/170/123 113/171/124 114/167/122
f 38/170/123 39/175/125 112/176/126 113/171/124
f 39/69/125 40/61/127 111/64/128 112/70/126
f 40/61/127 41/62/129 110/63/130 111/64/128
f 41/62/129 42/65/131 109/66/132 110/63/130
f 42/65/131 43/71/133 108/72/134 109/66/132
f 43/71/133 44/77/135 107/78/136 108/72/134
f 44/77/135 45/82/137 106/83/138 107/78/136
f 45/182/137 46/183/139 105/184/140 106/185/138
f 46/183/139 47/186/141 104/187/142 105/184/140
f 47/186/141 48/190/143 103/191/144 104/187/142
f 48/190/143 49/195/145 102/196/146 103/191/144
f 49/56/145 50/52/147 101/53/148 102/57/146
f 50/52/147 51/47/149 100/48/150 101/53/148
f 51/47/149 52/41/151 99/42/152 100/48/150
f 52/41/151 33/33/113 98/36/116 99/42/152
s 2
f 34/112/153 33/113/154 73/114/155
f 35/116/156 34/112/153 73/114/155
f 36/118/157 35/116/156 73/114/155
f 37/120/158 36/118/157 73/114/155
f 38/122/159 37/120/158 73/114/155
f 39/124/160 38/122/159 73/114/155
f 40/126/161 39/124/160 73/114/155
f 41/128/162 40/126/161 73/114/155
f 42/130/163 41/128/162 73/114/155
f 43/132/164 42/130/163 73/114/155
f 44/131/165 43/132/164 73/114/155
f 45/129/166 44/131/165 73/114/155
f 46/127/167 45/129/166 73/114/155
f 47/125/168 46/127/167 73/114/155
f 48/123/169 47/125/168 73/114/155
f 49/121/170 48/123/169 73/114/155
f 50/119/171 49/121/170 73/114/155
f 51/117/172 50/119/171 73/114/155
f 52/115/173 51/117/172 73/114/155
f 33/113/154 52/115/173 73/114/155
s 3
f 53/133/174 54/134/175 74/135/176
f 54/134/175 55/136/177 74/135/176
f 55/136/177 56/138/178 74/135/176
f 56/138/178 57/140/179 74/135/176
f 57/140/179 58/142/180 74/135/176
f 58/142/180 59/144/181 74/135/176
f 59/144/181 60/146/182 74/135/176
f 60/146/182 61/148/183 74/135/176
f 61/148/183 62/150/184 74/135/176
f 62/150/184 63/152/185 74/135/176
f 63/152/185 64/153/186 74/135/176
f 64/153/186 65/151/187 74/135/176
f 65/151/187 66/149/188 74/135/176
f 66/149/188 67/147/189 74/135/176
f 67/147/189 68/145/190 74/135/176
f 68/145/190 69/143/191 74/135/176
f 69/143/191 70/141/192 74/135/176
f 70/141/192 71/139/193 74/135/176
f 71/139/193 72/137/194 74/135/176
f 72/137/194 53/133/174 74/135/176
s 1
f 76/169/195 75/168/196 56/173/197 55/174/198
f 77/39/199 76/43/195 55/49/198 54/44/200
f 78/40/201 77/39/199 54/44/200 53/45/202
f 79/46/203 78/40/201 53/45/202 72/50/204
f 80/51/205 79/46/203 72/50/204 71/54/206
f 81/55/207 80/51/205 71/54/206 70/58/208
f 82/59/209 81/55/207 70/58/208 69/60/210
f 83/197/211 82/199/209 69/201/210 68/200/212
f 84/192/213 83/197/211 68/200/212 67/198/214
f 85/188/215 84/192/213 67/198/214 66/193/216
f 86/189/217 85/188/215 66/193/216 65/194/218
f 87/84/219 86/86/217 65/88/218 64/87/220
f 88/79/221 87/84/219 64/87/220 63/85/222
f 89/73/223 88/79/221 63/85/222 62/80/224
f 90/67/225 89/73/223 62/80/224 61/74/226
f 91/68/227 90/67/225 61/74/226 60/75/228
f 92/76/229 91/68/227 60/75/228 59/81/230
f 93/177/231 92/179/229 59/181/230 58/180/232
f 94/172/233 93/177/231 58/180/232 57/178/234
f 75/168/196 94/172/233 57/178/234 56/173/197
f 96/165/118 95/164/120 75/168/196 76/169/195
f 97/35/115 96/38/118 76/43/195 77/39/199
f 98/36/116 97/35/115 77/39/199 78/40/201
f 99/42/152 98/36/116 78/40/201 79/46/203
f 100/48/150 99/42/152 79/46/203 80/51/205
f 101/53/148 100/48/150 80/51/205 81/55/207
f 102/57/146 101/53/148 81/55/207 82/59/209
f 103/191/144 102/196/146 82/199/209 83/197/211
f 104/187/142 103/191/144 83/197/211 84/192/213
f 105/184/140 104/187/142 84/192/213 85/188/215
f 106/185/138 105/184/140 85/188/215 86/189/217
f 107/78/136 106/83/138 86/86/217 87/84/219
f 108/72/134 107/78/136 87/84/219 88/79/221
f 109/66/132 108/72/134 88/79/221 89/73/223
f 110/63/130 109/66/132 89/73/223 90/67/225
f 111/64/128 110/63/130 90/67/225 91/68/227
f 112/70/126 111/64/128 91/68/227 92/76/229
f 113/171/124 112/176/126 92/179/229 93/177/231
f 114/167/122 113/171/124 93/177/231 94/172/233
f 95/164/120 114/167/122 94/172/233 75/168/196
