# This file uses centimeters as units for non-parametric coordinates.

mtllib scaffolding.mtl
g default
v -1.820402 -0.500000 10.994739
v 1.820402 -0.500000 10.994739
v -1.820402 0.500000 10.994739
v 1.820402 0.500000 10.994739
v -1.820402 0.500000 -10.994739
v 1.820402 0.500000 -10.994739
v -1.820402 -0.500000 -10.994739
v 1.820402 -0.500000 -10.994739
v -0.524608 0.463026 10.994739
v 0.524608 0.463026 10.994739
v -0.524608 1.463026 10.994739
v 0.524608 1.463026 10.994739
v -0.524608 1.463026 -10.994739
v 0.524608 1.463026 -10.994739
v -0.524608 0.463026 -10.994739
v 0.524608 0.463026 -10.994739
v -1.820402 1.429112 10.994739
v 1.820402 1.429112 10.994739
v -1.820402 2.429112 10.994739
v 1.820402 2.429112 10.994739
v -1.820402 2.429112 -10.994739
v 1.820402 2.429112 -10.994739
v -1.820402 1.429112 -10.994739
v 1.820402 1.429112 -10.994739
vt 0.212020 0.915877
vt 0.212020 0.086600
vt 0.249732 0.086600
vt 0.249732 0.915877
vt 0.074716 0.086600
vt 0.074716 0.915877
vt 0.037004 0.915877
vt 0.037004 0.086600
vt 0.543375 0.918901
vt 0.543375 0.089624
vt 0.581087 0.089624
vt 0.581087 0.918900
vt 0.503806 0.089624
vt 0.503806 0.918901
vt 0.466094 0.918901
vt 0.466094 0.089624
vt 0.974337 0.086600
vt 0.974337 0.915877
vt 0.936625 0.915877
vt 0.936625 0.086600
vt 0.761609 0.915877
vt 0.761609 0.086600
vt 0.799321 0.086600
vt 0.799321 0.915877
vt 0.387036 0.915877
vt 0.387036 0.086600
vt 0.426525 0.918901
vt 0.426525 0.089624
vt 0.624305 0.915877
vt 0.624305 0.086600
vt 0.212020 0.953589
vt 0.074716 0.953589
vt 0.074716 0.048888
vt 0.212020 0.048888
vt 0.543375 0.958469
vt 0.581088 0.958469
vt 0.581088 0.050056
vt 0.543376 0.050055
vt 0.799321 0.048888
vt 0.936625 0.048888
vt 0.936625 0.953589
vt 0.799321 0.953590
vn 0.000000 0.000000 1.000000
vn 0.000000 0.000000 1.000000
vn 0.000000 0.000000 1.000000
vn 0.000000 0.000000 1.000000
vn 0.000000 1.000000 0.000000
vn 0.000000 1.000000 0.000000
vn 0.000000 1.000000 0.000000
vn 0.000000 1.000000 0.000000
vn 0.000000 0.000000 -1.000000
vn 0.000000 0.000000 -1.000000
vn 0.000000 0.000000 -1.000000
vn 0.000000 0.000000 -1.000000
vn 0.000000 -1.000000 0.000000
vn 0.000000 -1.000000 0.000000
vn 0.000000 -1.000000 0.000000
vn 0.000000 -1.000000 0.000000
vn 1.000000 0.000000 0.000000
vn 1.000000 0.000000 0.000000
vn 1.000000 0.000000 0.000000
vn 1.000000 0.000000 0.000000
vn -1.000000 0.000000 0.000000
vn -1.000000 0.000000 0.000000
vn -1.000000 0.000000 0.000000
vn -1.000000 0.000000 0.000000
vn 0.000000 0.000000 1.000000
vn 0.000000 0.000000 1.000000
vn 0.000000 0.000000 1.000000
vn 0.000000 0.000000 1.000000
vn 0.000000 1.000000 0.000000
vn 0.000000 1.000000 0.000000
vn 0.000000 1.000000 0.000000
vn 0.000000 1.000000 0.000000
vn 0.000000 0.000000 -1.000000
vn 0.000000 0.000000 -1.000000
vn 0.000000 0.000000 -1.000000
vn 0.000000 0.000000 -1.000000
vn 0.000000 -1.000000 0.000000
vn 0.000000 -1.000000 0.000000
vn 0.000000 -1.000000 0.000000
vn 0.000000 -1.000000 0.000000
vn 1.000000 0.000000 0.000000
vn 1.000000 0.000000 0.000000
vn 1.000000 0.000000 0.000000
vn 1.000000 0.000000 0.000000
vn -1.000000 0.000000 0.000000
vn -1.000000 0.000000 0.000000
vn -1.000000 0.000000 0.000000
vn -1.000000 0.000000 0.000000
vn 0.000000 0.000000 1.000000
vn 0.000000 0.000000 1.000000
vn 0.000000 0.000000 1.000000
vn 0.000000 0.000000 1.000000
vn 0.000000 1.000000 0.000000
vn 0.000000 1.000000 0.000000
vn 0.000000 1.000000 0.000000
vn 0.000000 1.000000 0.000000
vn 0.000000 0.000000 -1.000000
vn 0.000000 0.000000 -1.000000
vn 0.000000 0.000000 -1.000000
vn 0.000000 0.000000 -1.000000
vn 0.000000 -1.000000 0.000000
vn 0.000000 -1.000000 0.000000
vn 0.000000 -1.000000 0.000000
vn 0.000000 -1.000000 0.000000
vn 1.000000 0.000000 0.000000
vn 1.000000 0.000000 0.000000
vn 1.000000 0.000000 0.000000
vn 1.000000 0.000000 0.000000
vn -1.000000 0.000000 0.000000
vn -1.000000 0.000000 0.000000
vn -1.000000 0.000000 0.000000
vn -1.000000 0.000000 0.000000
s off
g pCube2
usemtl initialShadingGroup
f 1/6/1 2/1/2 4/31/3 3/32/4
f 3/25/5 4/4/6 6/3/7 5/26/8
f 5/33/9 6/34/10 8/2/11 7/5/12
f 7/5/13 8/2/14 2/1/15 1/6/16
f 2/1/17 8/2/18 6/3/19 4/4/20
f 7/5/21 1/6/22 3/7/23 5/8/24
f 9/35/25 10/9/26 12/12/27 11/36/28
f 11/15/29 12/27/30 14/28/31 13/16/32
f 13/37/33 14/11/34 16/10/35 15/38/36
f 15/13/37 16/10/38 10/9/39 9/14/40
f 10/9/41 16/10/42 14/11/43 12/12/44
f 15/13/45 9/14/46 11/15/47 13/16/48
f 17/39/49 18/40/50 20/20/51 19/23/52
f 19/23/53 20/20/54 22/19/55 21/24/56
f 21/24/57 22/19/58 24/41/59 23/42/60
f 23/21/61 24/29/62 18/30/63 17/22/64
f 18/17/65 24/18/66 22/19/67 20/20/68
f 23/21/69 17/22/70 19/23/71 21/24/72
